# AST/ASF file generated using VICON BodyLanguage
# -----------------------------------------------
:version 1.10
:name VICON
:units
  mass 1.0
  length 0.45
  angle deg
:documentation
   .ast/.asf automatically generated from VICON data using
   VICON BodyBuilder and BodyLanguage model FoxedUp or BRILLIANT.MOD
:root
   order TX TY TZ RX RY RZ
   axis XYZ
   position 0 0 0  
   orientation 0 0 0 
:bonedata
  begin
     id 1 
     name lhipjoint
     direction 0.734343 -0.627749 0.258209 
     length 2.5437 
     axis 0 0 0  XYZ
  end
  begin
     id 2 
     name lfemur
     direction 0.34202 -0.939693 0  
     length 6.7391  
     axis 0 0 20  XYZ
    dof rx ry rz
    limits (-160.0 20.0)
           (-70.0 70.0)
           (-60.0 70.0)
  end
  begin
     id 3 
     name ltibia
     direction 0.34202 -0.939693 0   
     length 7.21536   
     axis 0 0 20   XYZ
    dof rx
    limits (-10.0 170.0)
  end
  begin
     id 4 
     name lfoot
     direction 0.0489572 -0.134509 0.989702   
     length 1.61313   
     axis -90 7.62852e-016 20   XYZ
    dof rx rz
    limits (-45.0 90.0)
           (-70.0 20.0)
  end
  begin
     id 5 
     name ltoes
     direction 1.53451e-011 -4.21692e-011 1   
     length 0.823104   
     axis -90 7.62852e-016 20   XYZ
    dof rx
    limits (-90.0 20.0)
  end
  begin
     id 6 
     name rhipjoint
     direction -0.746398 -0.615468 0.253157   
     length 2.59446  
     axis 0 0 0  XYZ 
  end
  begin
     id 7 
     name rfemur
     direction -0.34202 -0.939693 0   
     length 6.7075   
     axis 0 0 -20   XYZ
    dof rx ry rz
    limits (-160.0 20.0)
           (-70.0 70.0)
           (-70.0 60.0)
  end
  begin
     id 8 
     name rtibia
     direction -0.34202 -0.939693 0   
     length 7.27262   
     axis 0 0 -20   XYZ
    dof rx
    limits (-10.0 170.0)
 end
 begin
     id 9 
     name rfoot
     direction -0.0455203 -0.125066 0.991104   
     length 1.91095  
     axis -90 -7.62852e-016 -20   XYZ
    dof rx rz
    limits (-45.0 90.0)
           (-20.0 70.0)
  end
  begin
     id 10 
     name rtoes
     direction -1.53601e-011 -4.21913e-011 1   
     length 0.969037   
     axis -90 -7.62852e-016 -20   XYZ
    dof rx
    limits (-90.0 20.0)
  end
  begin
     id 11 
     name lowerback
     direction 0.0181546 0.999122 -0.0377542   
     length 1.99916   
     axis 0 0 0   XYZ
    dof rx ry rz
    limits (-20.0 45.0)
           (-30.0 30.0)
           (-30.0 30.0)
  end
  begin
     id 12 
     name upperback
     direction 0.0203486 0.99589 0.0882534   
     length 1.951   
     axis 0 0 0   XYZ
    dof rx ry rz
    limits (-20.0 45.0)
           (-30.0 30.0)
           (-30.0 30.0)
  end
  begin
     id 13 
     name thorax
     direction 0.0131685 0.994241 0.106355   
     length 1.97461   
     axis 0 0 0   XYZ
    dof rx ry rz
    limits (-20.0 45.0)
           (-30.0 30.0)
           (-30.0 30.0)
  end
  begin
     id 14 
     name lowerneck
     direction -0.0281395 0.999325 0.023617   
     length 1.7959   
     axis 0 0 0   XYZ
    dof rx ry rz
    limits (-20.0 45.0)
           (-30.0 30.0)
           (-30.0 30.0)
  end
  begin
     id 15 
     name upperneck
     direction 0.0288721 0.991984 -0.123019   
     length 1.79917   
     axis 0 0 0   XYZ
    dof rx ry rz
    limits (-20.0 45.0)
           (-30.0 30.0)
           (-30.0 30.0)
  end
  begin
     id 16
     name head
     direction 0.0133797 0.998944 -0.0439492  
     length 1.80902  
     axis 0 0 0   XYZ
    dof rx ry rz
    limits (-20.0 45.0)
           (-30.0 30.0)
           (-30.0 30.0)
  end
  begin
     id 17 
     name lclavicle
     direction 0.919195 0.377107 0.113449  
     length 3.17815  
     axis 0 0 0   XYZ
    dof ry rz
    limits (-20.0 10.0)
           (0.0 20.0)
  end
  begin
     id 18 
     name lhumerus
     direction 1 -4.48959e-011 2.13129e-027   
     length 4.84137   
     axis 180 -30 -90   XYZ
    dof rx ry rz
    limits (-60.0 90.0)
           (-90.0 90.0)
           (-90.0 90.0)
  end
  begin
     id 19
     name lradius
     direction 1 -4.48957e-011 -6.30627e-028   
     length 3.2452   
     axis 180 -30 -90   XYZ
    dof rx
    limits (-10.0 170.0)
  end
  begin
     id 20
     name lwrist
     direction 1 -4.4901e-011 9.13299e-027   
     length 1.6226   
     axis -6.84618e-015 90 90   XYZ
    dof ry
    limits (-180.0 0.0)
 end
  begin
     id 21 
     name lhand
     direction 1 -4.48816e-011 1.82293e-026   
     length 0.521221   
     axis -1.16502e-014 90 90   XYZ
    dof rx rz
    limits (-90.0 90.0)
           (-45.0 45.0)
  end
  begin
     id 22 
     name lfingers
     direction 1 -4.49108e-011 3.65687e-026   
     length 0.420221   
     axis -2.33008e-014 90 90   XYZ
    dof rx
    limits (0.0 90.0)
  end
  begin
     id 23
     name lthumb
     direction 0.707107 -6.34943e-011 0.707107   
     length 0.603356   
     axis -90 45 5.69224e-014   XYZ
    dof rx rz
    limits (-45.0 45.0)
           (-45.0 45.0)
  end
  begin
     id 24 
     name rclavicle
     direction -0.90847 0.38596 0.160368   
     length 3.12973  
     axis 0 0 0   XYZ 
    dof ry rz
    limits (-10.0 20.0)
           (-20.0 0.0)
  end
  begin
     id 25 
     name rhumerus
     direction -1 -4.48974e-011 4.47268e-028  
     length 4.72284   
     axis 180 30 90   XYZ
    dof rx ry rz
    limits (-90.0 60.0)
           (-90.0 90.0)
           (-90.0 90.0)
  end
  begin
     id 26 
     name rradius
     direction -1 -4.48969e-011 3.43203e-027   
     length 3.23459   
     axis 180 30 90   XYZ
    dof rx
    limits (-10.0 170.0)
  end
  begin
     id 27 
     name rwrist
     direction -1 -4.48969e-011 9.12911e-027   
     length 1.6173   
     axis -6.84618e-015 -90 -90   XYZ
    dof ry
    limits (-180.0 0.0)
  end
  begin
     id 28
     name rhand
     direction -1 -4.49194e-011 1.83006e-026   
     length 0.307416   
     axis -1.16502e-014 -90 -90   XYZ
    dof rx rz
    limits (-90.0 90.0)
           (-45.0 45.0)
  end
  begin
     id 29
     name rfingers
     direction -1 -4.48423e-011 3.63103e-026   
     length 0.247847   
     axis -2.33008e-014 -90 -90   XYZ
    dof rx
    limits (0.0 90.0)
  end
  begin
     id 30
     name rthumb
     direction -0.707107 -6.34802e-011 0.707107   
     length 0.35586   
     axis -90 -45 -5.69224e-014   XYZ
    dof rx rz
    limits (-45.0 45.0)
           (-45.0 45.0)
  end
:hierarchy
  begin
    root lhipjoint rhipjoint lowerback
    lhipjoint lfemur
    lfemur ltibia
    ltibia lfoot
    lfoot ltoes
    rhipjoint rfemur
    rfemur rtibia
    rtibia rfoot
    rfoot rtoes
    lowerback upperback
    upperback thorax
    thorax lowerneck lclavicle rclavicle
    lowerneck upperneck
    upperneck head
    lclavicle lhumerus
    lhumerus lradius
    lradius lwrist
    lwrist lhand lthumb
    lhand lfingers
    rclavicle rhumerus
    rhumerus rradius
    rradius rwrist
    rwrist rhand rthumb
    rhand rfingers
  end

#!OML:ASF H:\Terrain\Patient Classification 1\Animal1\Tuesday\Animal1.ASF
:FULLY-SPECIFIED
:DEGREES
51
root 27.208 15.9341 -31.224 19.6412 -33.4542 3.72012
lowerback 19.1662 -0.546753 -1.33859
upperback 5.00884 -1.19033 -1.9118
thorax -5.33477 -0.609597 -0.997983
lowerneck -8.28495 1.31844 -4.15058
upperneck -0.712136 2.11895 1.07366
head 1.11995 1.07971 1.11089
rclavicle 4.11484e-014 1.23246e-014
rhumerus -23.593 26.6775 -84.4418
rradius 43.3699
rwrist -23.4923
rhand -23.5254 28.3044
rfingers 7.12502
rthumb 2.93575 -1.65516
lclavicle 4.11484e-014 1.23246e-014
lhumerus -14.0105 -21.3495 77.0134
lradius 38.9583
lwrist -20.2918
lhand 4.88004 43.378
lfingers 7.12502
lthumb 30.2555 70.9187
rfemur -43.4544 6.4989 14.8249
rtibia 33.744
rfoot -6.64446 -35.5561
rtoes 13.5621
lfemur -37.7092 -8.42916 -14.5454
ltibia 27.6022
lfoot -13.0957 24.1242
ltoes 13.0438
52
root 27.2138 15.9123 -31.267 20.0476 -33.522 3.87986
lowerback 19.8367 -0.567074 -1.52072
upperback 5.13619 -1.27529 -1.972
thorax -5.54893 -0.649931 -0.933294
lowerneck -8.30964 1.38408 -4.00824
upperneck -1.32196 2.19187 0.954714
head 0.929068 1.12033 1.04374
rclavicle 8.11041e-014 -1.51076e-014
rhumerus -23.4998 26.9357 -84.0492
rradius 43.6641
rwrist -23.8788
rhand -23.8797 27.8534
rfingers 7.12502
rthumb 2.59358 -2.11055
lclavicle 8.11041e-014 -1.51076e-014
lhumerus -12.9632 -21.9567 76.3603
lradius 39.0105
lwrist -20.4914
lhand 4.56253 43.0422
lfingers 7.12502
lthumb 29.9526 70.638
rfemur -44.4717 5.83292 14.9312
rtibia 34.2469
rfoot -7.09583 -34.6714
rtoes 14.6549
lfemur -38.7978 -7.1381 -15.0686
ltibia 28.3429
lfoot -12.4163 23.1156
ltoes 10.8846
53
root 27.2214 15.8952 -31.307 20.4821 -33.7198 3.96726
lowerback 20.4664 -0.548067 -1.70072
upperback 5.25023 -1.30952 -2.01333
thorax -5.75315 -0.665485 -0.861458
lowerneck -8.23208 1.43671 -4.0543
upperneck -1.90301 2.25853 1.00028
head 0.728926 1.16076 1.0599
rclavicle -2.60408e-014 6.75868e-015
rhumerus -23.3604 26.8844 -83.621
rradius 43.7528
rwrist -24.1422
rhand -23.7582 28.3432
rfingers 7.12502
rthumb 2.71088 -1.61932
lclavicle -2.60408e-014 6.75868e-015
lhumerus -11.9277 -22.5027 75.7265
lradius 38.9695
lwrist -20.7879
lhand 4.81416 42.832
lfingers 7.12502
lthumb 30.1927 70.3843
rfemur -45.4982 5.05758 15.2099
rtibia 34.763
rfoot -7.25698 -33.6635
rtoes 14.8847
lfemur -39.8579 -5.99462 -15.5028
ltibia 29.1076
lfoot -12.0192 22.3515
ltoes 8.64509
54
root 27.2272 15.8719 -31.3475 21.0894 -33.9181 3.65529
lowerback 21.0025 -0.536014 -1.67132
upperback 5.47339 -1.29999 -1.95278
thorax -5.7907 -0.663583 -0.811375
lowerneck -8.32939 1.46787 -4.2514
upperneck -2.34365 2.31776 1.22179
head 0.601395 1.19952 1.16185
rclavicle -2.42517e-014 2.00773e-014
rhumerus -23.1017 27.0137 -83.1567
rradius 43.7859
rwrist -24.427
rhand -23.8814 29.6343
rfingers 7.12502
rthumb 2.59192 -0.329679
lclavicle -2.42517e-014 2.00773e-014
lhumerus -10.7267 -22.8705 74.9959
lradius 38.9429
lwrist -21.2019
lhand 4.5001 41.6623
lfingers 7.12502
lthumb 29.893 69.2689
rfemur -46.4669 4.17563 16.0202
rtibia 35.2945
rfoot -7.20866 -32.4639
rtoes 14.4474
lfemur -40.8776 -4.71302 -15.609
ltibia 29.8779
lfoot -12.0362 21.5185
ltoes 6.71484
55
root 27.2332 15.8385 -31.3954 21.6392 -33.8887 3.40615
lowerback 21.691 -0.598112 -1.54438
upperback 5.73761 -1.37203 -1.93334
thorax -5.86424 -0.701879 -0.8387
lowerneck -8.44249 1.49236 -4.1698
upperneck -2.92991 2.34439 1.31852
head 0.434895 1.21926 1.17402
rclavicle 3.04141e-014 4.81059e-014
rhumerus -22.7538 27.2074 -82.7295
rradius 43.8906
rwrist -24.7103
rhand -24.6172 30.1864
rfingers 7.12502
rthumb 1.88129 0.214938
lclavicle 3.04141e-014 4.81059e-014
lhumerus -9.44363 -23.3416 74.0789
lradius 39.0822
lwrist -21.5762
lhand 3.62919 40.6743
lfingers 7.12502
lthumb 29.0616 68.4274
rfemur -47.4112 3.48347 16.6815
rtibia 35.8242
rfoot -7.19316 -31.6743
rtoes 14.3698
lfemur -41.9964 -3.51938 -15.7151
ltibia 30.7186
lfoot -12.1336 20.4115
ltoes 5.73247
